<svg width="24" height="25" viewBox="0 0 24 25" fill="none" xmlns="http://www.w3.org/2000/svg">
<g clip-path="url(#clip0_271_17083)">
<path d="M23.4392 12.7836C23.4392 11.8004 23.3594 11.0828 23.1867 10.3387H11.9587V14.7767H18.5493C18.4165 15.8796 17.699 17.5406 16.1044 18.6567L16.0821 18.8052L19.6321 21.5554L19.8781 21.58C22.1369 19.4938 23.4392 16.4244 23.4392 12.7836Z" fill="#4285F4"/>
<path d="M11.9588 24.4766C15.1877 24.4766 17.8983 23.4136 19.8782 21.58L16.1045 18.6566C15.0947 19.3609 13.7393 19.8525 11.9588 19.8525C8.79643 19.8525 6.11237 17.7664 5.15557 14.8831L5.01533 14.895L1.32391 17.7518L1.27563 17.886C3.24217 21.7925 7.28159 24.4766 11.9588 24.4766Z" fill="#34A853"/>
<path d="M5.15551 14.8831C4.90305 14.139 4.75695 13.3417 4.75695 12.5179C4.75695 11.694 4.90305 10.8968 5.14223 10.1527L5.13554 9.99421L1.39786 7.09149L1.27557 7.14966C0.465069 8.77076 0 10.5912 0 12.5179C0 14.4446 0.465069 16.2649 1.27557 17.886L5.15551 14.8831Z" fill="#FBBC05"/>
<path d="M11.9588 5.18311C14.2044 5.18311 15.7191 6.1531 16.5829 6.96369L19.9579 3.66836C17.8851 1.74168 15.1877 0.559082 11.9588 0.559082C7.28159 0.559082 3.24217 3.24314 1.27563 7.14965L5.14229 10.1527C6.11237 7.26928 8.79643 5.18311 11.9588 5.18311Z" fill="#EB4335"/>
</g>
<defs>
<clipPath id="clip0_271_17083">
<rect width="23.4504" height="24" fill="white" transform="translate(0 0.559082)"/>
</clipPath>
</defs>
</svg>
